<svg width="40" height="40" viewBox="0 0 40 40" fill="none" xmlns="http://www.w3.org/2000/svg">
<path d="M20.0007 3.33334C10.8007 3.33334 3.33398 10.8 3.33398 20C3.33398 29.2 10.8007 36.6667 20.0007 36.6667C29.2007 36.6667 36.6673 29.2 36.6673 20C36.6673 10.8 29.2007 3.33334 20.0007 3.33334ZM15.484 27.15L9.50065 21.1667C9.34635 21.0124 9.22395 20.8292 9.14044 20.6276C9.05693 20.426 9.01395 20.2099 9.01395 19.9917C9.01395 19.7735 9.05693 19.5574 9.14044 19.3558C9.22395 19.1542 9.34635 18.971 9.50065 18.8167C9.65495 18.6624 9.83814 18.54 10.0397 18.4565C10.2414 18.3729 10.4574 18.33 10.6757 18.33C10.8939 18.33 11.1099 18.3729 11.3116 18.4565C11.5132 18.54 11.6963 18.6624 11.8507 18.8167L16.6673 23.6167L28.134 12.15C28.4456 11.8384 28.8683 11.6633 29.309 11.6633C29.7497 11.6633 30.1724 11.8384 30.484 12.15C30.7956 12.4616 30.9707 12.8843 30.9707 13.325C30.9707 13.7657 30.7956 14.1884 30.484 14.5L17.834 27.15C17.6798 27.3045 17.4966 27.4271 17.295 27.5107C17.0934 27.5944 16.8773 27.6374 16.659 27.6374C16.4407 27.6374 16.2246 27.5944 16.0229 27.5107C15.8213 27.4271 15.6382 27.3045 15.484 27.15Z" fill="#01A601"/>
</svg>
