<svg width="49" height="40" viewBox="0 0 49 40" fill="none" xmlns="http://www.w3.org/2000/svg">
<path d="M6.125 13.3333C6.125 14.25 7.04375 15 8.16667 15C9.28958 15 10.2083 14.25 10.2083 13.3333V10H14.2917C15.4146 10 16.3333 9.25001 16.3333 8.33334C16.3333 7.41667 15.4146 6.66667 14.2917 6.66667H10.2083V3.33334C10.2083 2.41667 9.28958 1.66667 8.16667 1.66667C7.04375 1.66667 6.125 2.41667 6.125 3.33334V6.66667H2.04167C0.91875 6.66667 0 7.41667 0 8.33334C0 9.25001 0.91875 10 2.04167 10H6.125V13.3333Z" fill="black"/>
<path d="M26.541 28.3333C29.9238 28.3333 32.666 26.0948 32.666 23.3333C32.666 20.5719 29.9238 18.3333 26.541 18.3333C23.1583 18.3333 20.416 20.5719 20.416 23.3333C20.416 26.0948 23.1583 28.3333 26.541 28.3333Z" fill="black"/>
<path d="M42.875 10H36.4029L33.8712 7.75001C33.4908 7.40899 33.0273 7.13652 32.5106 6.94998C31.9938 6.76345 31.435 6.66696 30.87 6.66667H17.8033C18.1504 7.16667 18.375 7.71667 18.375 8.33334C18.375 10.1667 16.5375 11.6667 14.2917 11.6667H12.25V13.3333C12.25 15.1667 10.4125 16.6667 8.16667 16.6667C7.41125 16.6667 6.7375 16.4833 6.125 16.2V33.3333C6.125 35.1667 7.9625 36.6667 10.2083 36.6667H42.875C45.1208 36.6667 46.9583 35.1667 46.9583 33.3333V13.3333C46.9583 11.5 45.1208 10 42.875 10ZM26.5417 31.6667C20.9067 31.6667 16.3333 27.9333 16.3333 23.3333C16.3333 18.7333 20.9067 15 26.5417 15C32.1767 15 36.75 18.7333 36.75 23.3333C36.75 27.9333 32.1767 31.6667 26.5417 31.6667Z" fill="black"/>
</svg>
