<svg width="113" height="24" viewBox="0 0 113 24" fill="none" xmlns="http://www.w3.org/2000/svg">
<path d="M104 7H107C107.657 7 108.307 7.12933 108.913 7.3806C109.52 7.63188 110.071 8.00017 110.536 8.46447C111 8.92876 111.368 9.47996 111.619 10.0866C111.871 10.6932 112 11.3434 112 12C112 12.6566 111.871 13.3068 111.619 13.9134C111.368 14.52 111 15.0712 110.536 15.5355C110.071 15.9998 109.52 16.3681 108.913 16.6194C108.307 16.8707 107.657 17 107 17H104M98 17H95C94.3434 17 93.6932 16.8707 93.0866 16.6194C92.48 16.3681 91.9288 15.9998 91.4645 15.5355C90.5268 14.5979 90 13.3261 90 12C90 10.6739 90.5268 9.40215 91.4645 8.46447C92.4021 7.52678 93.6739 7 95 7H98" stroke="black" stroke-width="2" stroke-linecap="round" stroke-linejoin="round"/>
<path d="M97 12H105" stroke="black" stroke-width="2" stroke-linecap="round" stroke-linejoin="round"/>
<path d="M74 4H65" stroke="black" stroke-width="2" stroke-linecap="round" stroke-linejoin="round"/>
<path d="M69 20H60" stroke="black" stroke-width="2" stroke-linecap="round" stroke-linejoin="round"/>
<path d="M70 4L64 20" stroke="black" stroke-width="2" stroke-linecap="round" stroke-linejoin="round"/>
<path d="M6 4H14C15.0609 4 16.0783 4.42143 16.8284 5.17157C17.5786 5.92172 18 6.93913 18 8C18 9.06087 17.5786 10.0783 16.8284 10.8284C16.0783 11.5786 15.0609 12 14 12H6V4Z" stroke="black" stroke-width="2" stroke-linecap="round" stroke-linejoin="round"/>
<path d="M6 12H15C16.0609 12 17.0783 12.4214 17.8284 13.1716C18.5786 13.9217 19 14.9391 19 16C19 17.0609 18.5786 18.0783 17.8284 18.8284C17.0783 19.5786 16.0609 20 15 20H6V12Z" stroke="black" stroke-width="2" stroke-linecap="round" stroke-linejoin="round"/>
<path d="M33 3V10C33 11.5913 33.6321 13.1174 34.7574 14.2426C35.8826 15.3679 37.4087 16 39 16C40.5913 16 42.1174 15.3679 43.2426 14.2426C44.3679 13.1174 45 11.5913 45 10V3" stroke="black" stroke-width="2" stroke-linecap="round" stroke-linejoin="round"/>
<path d="M31 21H47" stroke="black" stroke-width="2" stroke-linecap="round" stroke-linejoin="round"/>
</svg>
