<svg width="20" height="22" viewBox="0 0 20 22" fill="none" xmlns="http://www.w3.org/2000/svg">
<path d="M17.5 9.23914C17.5 15.0725 10 20.0725 10 20.0725C10 20.0725 2.5 15.0725 2.5 9.23914C2.5 7.25001 3.29018 5.34236 4.6967 3.93583C6.10322 2.52931 8.01088 1.73914 10 1.73914C11.9891 1.73914 13.8968 2.52931 15.3033 3.93583C16.7098 5.34236 17.5 7.25001 17.5 9.23914Z" stroke="black" stroke-width="2" stroke-linecap="round" stroke-linejoin="round"/>
<path d="M12.2415 7.22604C11.63 5.98814 10.1307 5.48037 8.89283 6.0919C7.65493 6.70343 7.14716 8.20269 7.75869 9.44059C8.37022 10.6785 9.86948 11.1863 11.1074 10.5747C12.3453 9.9632 12.8531 8.46394 12.2415 7.22604Z" stroke="black" stroke-width="2" stroke-linecap="round" stroke-linejoin="round"/>
</svg>
