<svg width="24" height="24" viewBox="0 0 24 24" fill="none" xmlns="http://www.w3.org/2000/svg">
<path fill-rule="evenodd" clip-rule="evenodd" d="M15.9996 6.00012C15.2039 6.00012 14.4409 6.3162 13.8783 6.87884C13.3156 7.44148 12.9996 8.20458 12.9996 9.00026C12.9996 9.79595 13.3156 10.5591 13.8783 11.1217C14.4409 11.6843 15.2039 12.0004 15.9996 12.0004C16.7952 12.0004 17.5583 11.6843 18.1209 11.1217C18.6835 10.5591 18.9996 9.79595 18.9996 9.00026C18.9996 8.20458 18.6835 7.44148 18.1209 6.87884C17.5583 6.3162 16.7952 6.00012 15.9996 6.00012ZM10.9996 9.00026C10.9996 8.18518 11.1988 7.38246 11.58 6.66199C11.9611 5.94152 12.5126 5.32516 13.1864 4.86657C13.8602 4.40798 14.6359 4.12106 15.4459 4.03081C16.256 3.94056 17.0758 4.0497 17.834 4.34874C18.5922 4.64778 19.2658 5.12765 19.7962 5.74656C20.3265 6.36547 20.6976 7.10465 20.877 7.89974C21.0563 8.69484 21.0387 9.52173 20.8254 10.3084C20.6122 11.0951 20.2099 11.8178 19.6536 12.4134C21.35 12.9653 22.8167 14.0622 23.8256 15.5336C23.9663 15.7528 24.016 16.0182 23.964 16.2734C23.912 16.5287 23.7625 16.7536 23.5473 16.9003C23.3321 17.047 23.0681 17.1039 22.8116 17.059C22.555 17.014 22.3261 16.8708 22.1736 16.6596C21.1976 15.2276 19.4176 14.0005 16.9996 14.0005C13.1656 14.0005 10.9996 17.0747 10.9996 19.0008C10.9996 19.266 10.8942 19.5203 10.7067 19.7079C10.5191 19.8954 10.2648 20.0008 9.99957 20.0008C9.73435 20.0008 9.48 19.8954 9.29246 19.7079C9.10493 19.5203 8.99957 19.266 8.99957 19.0008C8.99957 18.3087 9.15757 17.5707 9.45957 16.8436C9.38105 16.7928 9.31003 16.7312 9.24857 16.6606C8.42757 15.7266 7.15357 15.0006 5.49957 15.0006C3.84557 15.0006 2.57157 15.7266 1.75057 16.6606C1.5728 16.8495 1.32862 16.9619 1.06956 16.9741C0.810505 16.9863 0.556834 16.8974 0.362083 16.7261C0.167333 16.5548 0.0467364 16.3146 0.0257444 16.0561C0.00475233 15.7976 0.0850067 15.541 0.249571 15.3406C0.840088 14.6685 1.55615 14.1181 2.35757 13.7205C1.71728 13.0956 1.27779 12.294 1.09524 11.4181C0.912688 10.5422 0.995364 9.63172 1.33271 8.80303C1.67005 7.97434 2.24674 7.26503 2.98913 6.76568C3.73151 6.26633 4.60589 5.99963 5.50057 5.99963C6.39525 5.99963 7.26963 6.26633 8.01202 6.76568C8.7544 7.26503 9.33109 7.97434 9.66844 8.80303C10.0058 9.63172 10.0885 10.5422 9.9059 11.4181C9.72335 12.294 9.28386 13.0956 8.64357 13.7205C9.33733 14.0648 9.96789 14.524 10.5086 15.0786C11.1877 14.2239 12.0327 13.5153 12.9926 12.9955C12.3731 12.5299 11.8705 11.9265 11.5246 11.2331C11.1787 10.5397 10.9989 9.7752 10.9996 9.00026ZM2.99957 10.5003C2.99957 9.83726 3.26296 9.20135 3.7318 8.73248C4.20064 8.26362 4.83653 8.00022 5.49957 8.00022C6.16261 8.00022 6.7985 8.26362 7.26734 8.73248C7.73618 9.20135 7.99957 9.83726 7.99957 10.5003C7.99957 11.1634 7.73618 11.7993 7.26734 12.2682C6.7985 12.7371 6.16261 13.0005 5.49957 13.0005C4.83653 13.0005 4.20064 12.7371 3.7318 12.2682C3.26296 11.7993 2.99957 11.1634 2.99957 10.5003Z" fill="white"/>
</svg>
