<svg width="24" height="24" viewBox="0 0 24 24" fill="none" xmlns="http://www.w3.org/2000/svg">
<path fill-rule="evenodd" clip-rule="evenodd" d="M11.5528 4.10557C11.8343 3.96481 12.1657 3.96481 12.4472 4.10557L22.4279 9.09589C22.5549 9.15614 22.6673 9.2424 22.7581 9.3478C22.9088 9.52289 23 9.7508 23 10V16C23 16.5523 22.5523 17 22 17C21.4477 17 21 16.5523 21 16V11.618L12.4472 15.8944C12.1657 16.0352 11.8343 16.0352 11.5528 15.8944L1.55279 10.8944C1.214 10.725 1 10.3788 1 10C1 9.62123 1.214 9.27496 1.55279 9.10557L11.5528 4.10557ZM19.7639 10L12 6.11803L4.23607 10L12 13.882L19.7639 10Z" fill="white"/>
<path fill-rule="evenodd" clip-rule="evenodd" d="M6 11C6.55228 11 7 11.4477 7 12V16.5649C8.26902 17.6607 10.1001 18.25 12 18.25C13.8999 18.25 15.731 17.6607 17 16.5649V12C17 11.4477 17.4477 11 18 11C18.5523 11 19 11.4477 19 12V17C19 17.2652 18.8946 17.5196 18.7071 17.7071C16.9771 19.4371 14.4485 20.25 12 20.25C9.55152 20.25 7.02287 19.4371 5.29289 17.7071C5.10536 17.5196 5 17.2652 5 17V12C5 11.4477 5.44772 11 6 11Z" fill="white"/>
</svg>
