<svg width="371" height="55" viewBox="0 0 371 55" fill="none" xmlns="http://www.w3.org/2000/svg">
<path d="M36.1253 16.375C35.6309 16.375 35.1475 16.5216 34.7364 16.7963C34.3253 17.071 34.0048 17.4615 33.8156 17.9183C33.6264 18.3751 33.5769 18.8778 33.6734 19.3627C33.7698 19.8477 34.0079 20.2931 34.3576 20.6428C34.7072 20.9924 35.1527 21.2305 35.6376 21.327C36.1226 21.4234 36.6252 21.3739 37.082 21.1847C37.5389 20.9955 37.9293 20.675 38.204 20.2639C38.4787 19.8528 38.6253 19.3694 38.6253 18.875C38.6253 18.2119 38.3619 17.5761 37.8931 17.1072C37.4243 16.6384 36.7884 16.375 36.1253 16.375ZM45.7087 21.4167C45.6681 19.6881 45.3444 17.9779 44.7503 16.3542C44.2206 14.9648 43.3961 13.7068 42.3337 12.6667C41.302 11.5988 40.0411 10.7795 38.6462 10.2708C37.0267 9.65866 35.3146 9.32751 33.5837 9.29166C31.3753 9.16666 30.667 9.16666 25.0003 9.16666C19.3337 9.16666 18.6253 9.16666 16.417 9.29166C14.6861 9.32751 12.974 9.65866 11.3545 10.2708C9.96215 10.7847 8.70227 11.6032 7.66699 12.6667C6.59913 13.6983 5.77986 14.9592 5.27116 16.3542C4.65899 17.9736 4.32785 19.6857 4.29199 21.4167C4.16699 23.625 4.16699 24.3333 4.16699 30C4.16699 35.6667 4.16699 36.375 4.29199 38.5833C4.32785 40.3143 4.65899 42.0264 5.27116 43.6458C5.77986 45.0407 6.59913 46.3017 7.66699 47.3333C8.70227 48.3967 9.96215 49.2153 11.3545 49.7292C12.974 50.3413 14.6861 50.6725 16.417 50.7083C18.6253 50.8333 19.3337 50.8333 25.0003 50.8333C30.667 50.8333 31.3753 50.8333 33.5837 50.7083C35.3146 50.6725 37.0267 50.3413 38.6462 49.7292C40.0411 49.2205 41.302 48.4012 42.3337 47.3333C43.4008 46.297 44.226 45.0379 44.7503 43.6458C45.3444 42.0221 45.6681 40.3119 45.7087 38.5833C45.7087 36.375 45.8337 35.6667 45.8337 30C45.8337 24.3333 45.8337 23.625 45.7087 21.4167ZM41.9587 38.3333C41.9435 39.6558 41.704 40.966 41.2503 42.2083C40.9177 43.115 40.3834 43.9342 39.6878 44.6042C39.0121 45.2927 38.1945 45.8259 37.292 46.1667C36.0497 46.6203 34.7394 46.8598 33.417 46.875C31.3337 46.9792 30.5628 47 25.0837 47C19.6045 47 18.8337 47 16.7503 46.875C15.3772 46.9007 14.0099 46.6893 12.7087 46.25C11.8457 45.8918 11.0657 45.36 10.417 44.6875C9.72551 44.0182 9.19792 43.1983 8.87533 42.2917C8.36669 41.0316 8.08458 39.6915 8.04199 38.3333C8.04199 36.25 7.91699 35.4792 7.91699 30C7.91699 24.5208 7.91699 23.75 8.04199 21.6667C8.05133 20.3147 8.29814 18.9749 8.77116 17.7083C9.13792 16.829 9.70088 16.0451 10.417 15.4167C11.0499 14.7003 11.8322 14.1314 12.7087 13.75C13.9786 13.2917 15.317 13.0522 16.667 13.0417C18.7503 13.0417 19.5212 12.9167 25.0003 12.9167C30.4795 12.9167 31.2503 12.9167 33.3337 13.0417C34.6561 13.0568 35.9664 13.2963 37.2087 13.75C38.1554 14.1013 39.0051 14.6726 39.6878 15.4167C40.3705 16.0566 40.904 16.839 41.2503 17.7083C41.7134 18.9769 41.953 20.3162 41.9587 21.6667C42.0628 23.75 42.0837 24.5208 42.0837 30C42.0837 35.4792 42.0628 36.25 41.9587 38.3333ZM25.0003 19.3125C22.8874 19.3166 20.8232 19.9469 19.0684 21.1238C17.3135 22.3006 15.9469 23.9712 15.1412 25.9245C14.3355 27.8777 14.1268 30.026 14.5416 32.0978C14.9563 34.1696 15.9758 36.0719 17.4713 37.5645C18.9668 39.0571 20.8712 40.0729 22.9438 40.4836C25.0164 40.8943 27.1642 40.6815 29.1159 39.8719C31.0676 39.0624 32.7355 37.6926 33.9089 35.9355C35.0824 34.1784 35.7087 32.1129 35.7087 30C35.7114 28.594 35.4362 27.2013 34.8987 25.902C34.3613 24.6027 33.5723 23.4225 32.5771 22.4293C31.582 21.436 30.4002 20.6493 29.0999 20.1144C27.7996 19.5795 26.4064 19.307 25.0003 19.3125ZM25.0003 36.9375C23.6282 36.9375 22.2869 36.5306 21.1461 35.7683C20.0052 35.006 19.116 33.9225 18.5909 32.6549C18.0658 31.3872 17.9284 29.9923 18.1961 28.6466C18.4638 27.3008 19.1245 26.0647 20.0948 25.0944C21.065 24.1242 22.3011 23.4635 23.6469 23.1958C24.9926 22.9281 26.3875 23.0655 27.6552 23.5906C28.9229 24.1157 30.0063 25.0049 30.7686 26.1457C31.531 27.2866 31.9378 28.6279 31.9378 30C31.9378 30.911 31.7584 31.8132 31.4097 32.6549C31.0611 33.4966 30.5501 34.2613 29.9059 34.9055C29.2617 35.5497 28.4969 36.0608 27.6552 36.4094C26.8135 36.758 25.9114 36.9375 25.0003 36.9375Z" fill="black"/>
<path d="M152.834 17.0833C151.268 17.7627 149.612 18.2118 147.917 18.4167C149.705 17.3486 151.045 15.6683 151.688 13.6875C150.008 14.6876 148.169 15.3923 146.25 15.7708C144.968 14.3804 143.261 13.4548 141.396 13.1393C139.531 12.8238 137.614 13.1362 135.946 14.0275C134.277 14.9188 132.952 16.3386 132.178 18.0643C131.404 19.7899 131.224 21.7237 131.667 23.5625C128.27 23.3907 124.947 22.5062 121.914 20.9664C118.881 19.4266 116.206 17.266 114.063 14.625C113.311 15.9379 112.916 17.4246 112.917 18.9375C112.914 20.3425 113.259 21.7263 113.921 22.9658C114.582 24.2052 115.54 25.2619 116.709 26.0417C115.35 26.0047 114.021 25.6402 112.834 24.9792V25.0833C112.844 27.0519 113.534 28.9565 114.786 30.4749C116.039 31.9934 117.778 33.0326 119.709 33.4167C118.965 33.6429 118.194 33.7621 117.417 33.7708C116.879 33.7646 116.343 33.7158 115.813 33.625C116.363 35.3184 117.427 36.7982 118.857 37.8587C120.287 38.9191 122.012 39.5074 123.792 39.5417C120.786 41.9068 117.075 43.1976 113.25 43.2083C112.554 43.2106 111.858 43.1689 111.167 43.0833C115.072 45.6047 119.623 46.9432 124.271 46.9375C127.479 46.9708 130.661 46.3646 133.632 45.1543C136.603 43.9441 139.302 42.1539 141.574 39.8885C143.845 37.6232 145.642 34.9279 146.86 31.9602C148.078 28.9926 148.692 25.8119 148.667 22.6042V21.5C150.302 20.2809 151.712 18.7863 152.834 17.0833Z" fill="black"/>
<path d="M256.646 4.16667H221.354C220.958 4.16116 220.564 4.23386 220.195 4.3806C219.827 4.52734 219.491 4.74526 219.206 5.02191C218.922 5.29856 218.695 5.62852 218.538 5.99294C218.381 6.35737 218.297 6.74913 218.292 7.14584V42.8542C218.297 43.2509 218.381 43.6426 218.538 44.0071C218.695 44.3715 218.922 44.7015 219.206 44.9781C219.491 45.2547 219.827 45.4727 220.195 45.6194C220.564 45.7662 220.958 45.8388 221.354 45.8333H256.646C257.043 45.8388 257.437 45.7662 257.805 45.6194C258.174 45.4727 258.51 45.2547 258.795 44.9781C259.079 44.7015 259.306 44.3715 259.463 44.0071C259.62 43.6426 259.703 43.2509 259.709 42.8542V7.14584C259.703 6.74913 259.62 6.35737 259.463 5.99294C259.306 5.62852 259.079 5.29856 258.795 5.02191C258.51 4.74526 258.174 4.52734 257.805 4.3806C257.437 4.23386 257.043 4.16116 256.646 4.16667ZM230.854 39.0417H224.604V20.2917H230.854V39.0417ZM227.729 17.6667C226.868 17.6667 226.041 17.3243 225.431 16.7148C224.822 16.1053 224.479 15.2786 224.479 14.4167C224.479 13.5547 224.822 12.7281 225.431 12.1186C226.041 11.5091 226.868 11.1667 227.729 11.1667C228.187 11.1148 228.651 11.1601 229.09 11.2998C229.529 11.4394 229.933 11.6702 230.277 11.977C230.62 12.2838 230.895 12.6598 231.083 13.0802C231.272 13.5006 231.369 13.956 231.369 14.4167C231.369 14.8773 231.272 15.3327 231.083 15.7532C230.895 16.1736 230.62 16.5495 230.277 16.8563C229.933 17.1632 229.529 17.3939 229.09 17.5336C228.651 17.6732 228.187 17.7186 227.729 17.6667ZM253.396 39.0417H247.146V28.9792C247.146 26.4583 246.25 24.8125 243.979 24.8125C243.277 24.8177 242.592 25.0381 242.019 25.4441C241.445 25.8501 241.01 26.4222 240.771 27.0833C240.608 27.573 240.537 28.0887 240.563 28.6042V39.0208H234.313V20.2708H240.563V22.9167C241.131 21.9315 241.956 21.1198 242.951 20.5692C243.946 20.0185 245.072 19.7497 246.209 19.7917C250.375 19.7917 253.396 22.4792 253.396 28.25V39.0417Z" fill="black"/>
<path d="M364.542 4.16666H327.459C326.851 4.16666 326.268 4.4081 325.838 4.83787C325.408 5.26764 325.167 5.85054 325.167 6.45832V43.5417C325.167 44.1494 325.408 44.7323 325.838 45.1621C326.268 45.5919 326.851 45.8333 327.459 45.8333H347.417V29.6875H342V23.4375H347.417V18.75C347.305 17.6495 347.435 16.5378 347.798 15.4928C348.161 14.4478 348.748 13.4949 349.518 12.7008C350.288 11.9068 351.223 11.2909 352.256 10.8963C353.29 10.5017 354.397 10.338 355.5 10.4167C357.122 10.4067 358.743 10.4901 360.354 10.6667V16.2917H357.042C354.417 16.2917 353.917 17.5417 353.917 19.3542V23.375H360.167L359.354 29.625H353.917V45.8333H364.542C364.843 45.8333 365.141 45.7741 365.419 45.6589C365.697 45.5437 365.95 45.3749 366.162 45.1621C366.375 44.9493 366.544 44.6967 366.659 44.4186C366.774 44.1406 366.834 43.8426 366.834 43.5417V6.45832C366.834 6.15738 366.774 5.85938 366.659 5.58134C366.544 5.3033 366.375 5.05067 366.162 4.83787C365.95 4.62507 365.697 4.45627 365.419 4.3411C365.141 4.22593 364.843 4.16666 364.542 4.16666Z" fill="black"/>
</svg>
