<svg width="40" height="40" viewBox="0 0 40 40" fill="none" xmlns="http://www.w3.org/2000/svg">
<path d="M20.0006 3.33334C10.784 3.33334 3.33398 10.7833 3.33398 20C3.33398 29.2167 10.784 36.6667 20.0006 36.6667C29.2173 36.6667 36.6673 29.2167 36.6673 20C36.6673 10.7833 29.2173 3.33334 20.0006 3.33334ZM27.1673 27.1667C27.0131 27.3212 26.83 27.4438 26.6283 27.5274C26.4267 27.611 26.2106 27.6541 25.9923 27.6541C25.774 27.6541 25.5579 27.611 25.3563 27.5274C25.1546 27.4438 24.9715 27.3212 24.8173 27.1667L20.0006 22.35L15.184 27.1667C14.8723 27.4783 14.4497 27.6534 14.009 27.6534C13.5683 27.6534 13.1456 27.4783 12.834 27.1667C12.5224 26.855 12.3473 26.4324 12.3473 25.9917C12.3473 25.7735 12.3903 25.5574 12.4738 25.3558C12.5573 25.1542 12.6797 24.971 12.834 24.8167L17.6506 20L12.834 15.1833C12.5224 14.8717 12.3473 14.449 12.3473 14.0083C12.3473 13.5676 12.5224 13.145 12.834 12.8333C13.1456 12.5217 13.5683 12.3466 14.009 12.3466C14.4497 12.3466 14.8723 12.5217 15.184 12.8333L20.0006 17.65L24.8173 12.8333C24.9716 12.679 25.1548 12.5566 25.3564 12.4731C25.558 12.3896 25.7741 12.3466 25.9923 12.3466C26.2105 12.3466 26.4266 12.3896 26.6282 12.4731C26.8298 12.5566 27.013 12.679 27.1673 12.8333C27.3216 12.9876 27.444 13.1708 27.5275 13.3724C27.611 13.574 27.654 13.7901 27.654 14.0083C27.654 14.2266 27.611 14.4426 27.5275 14.6442C27.444 14.8458 27.3216 15.029 27.1673 15.1833L22.3506 20L27.1673 24.8167C27.8006 25.45 27.8006 26.5167 27.1673 27.1667Z" fill="#D10404"/>
</svg>
