<svg width="131" height="25" viewBox="0 0 131 25" fill="none" xmlns="http://www.w3.org/2000/svg">
<path d="M48 2H40C39.4696 2 38.9609 2.21071 38.5858 2.58579C38.2107 2.96086 38 3.46957 38 4V20C38 20.5304 38.2107 21.0391 38.5858 21.4142C38.9609 21.7893 39.4696 22 40 22H52C52.5304 22 53.0391 21.7893 53.4142 21.4142C53.7893 21.0391 54 20.5304 54 20V8L48 2Z" stroke="black" stroke-width="2" stroke-linecap="round" stroke-linejoin="round"/>
<path d="M48 2V8H54" stroke="black" stroke-width="2" stroke-linecap="round" stroke-linejoin="round"/>
<path d="M50 13H42" stroke="black" stroke-width="2" stroke-linecap="round" stroke-linejoin="round"/>
<path d="M50 17H42" stroke="black" stroke-width="2" stroke-linecap="round" stroke-linejoin="round"/>
<path d="M44 9H43H42" stroke="black" stroke-width="2" stroke-linecap="round" stroke-linejoin="round"/>
<path d="M19 4H5C3.89543 4 3 4.89543 3 6V20C3 21.1046 3.89543 22 5 22H19C20.1046 22 21 21.1046 21 20V6C21 4.89543 20.1046 4 19 4Z" stroke="black" stroke-width="2" stroke-linecap="round" stroke-linejoin="round"/>
<path d="M8.5 11C9.32843 11 10 10.3284 10 9.5C10 8.67157 9.32843 8 8.5 8C7.67157 8 7 8.67157 7 9.5C7 10.3284 7.67157 11 8.5 11Z" stroke="black" stroke-width="2" stroke-linecap="round" stroke-linejoin="round"/>
<path d="M21 16L16 11L5 22" stroke="black" stroke-width="2" stroke-linecap="round" stroke-linejoin="round"/>
<path d="M89 8L82 13L89 18V8Z" stroke="black" stroke-width="2" stroke-linecap="round" stroke-linejoin="round"/>
<path d="M80 6H69C67.8954 6 67 6.89543 67 8V18C67 19.1046 67.8954 20 69 20H80C81.1046 20 82 19.1046 82 18V8C82 6.89543 81.1046 6 80 6Z" stroke="black" stroke-width="2" stroke-linecap="round" stroke-linejoin="round"/>
<path d="M117 14C117.429 14.5741 117.977 15.0492 118.607 15.3929C119.236 15.7367 119.932 15.9411 120.647 15.9923C121.362 16.0436 122.08 15.9404 122.751 15.6898C123.423 15.4392 124.033 15.0471 124.54 14.54L127.54 11.54C128.451 10.597 128.955 9.33398 128.943 8.02299C128.932 6.71201 128.406 5.45795 127.479 4.53091C126.552 3.60387 125.298 3.07802 123.987 3.06663C122.676 3.05524 121.413 3.55921 120.47 4.47L118.75 6.18" stroke="black" stroke-width="2" stroke-linecap="round" stroke-linejoin="round"/>
<path d="M121 12C120.571 11.4259 120.023 10.9508 119.394 10.6071C118.764 10.2633 118.069 10.0589 117.354 10.0077C116.638 9.95645 115.921 10.0596 115.249 10.3102C114.577 10.5608 113.967 10.9529 113.46 11.46L110.46 14.46C109.549 15.403 109.045 16.666 109.057 17.977C109.068 19.288 109.594 20.5421 110.521 21.4691C111.448 22.3961 112.702 22.922 114.013 22.9334C115.324 22.9448 116.587 22.4408 117.53 21.53L119.24 19.82" stroke="black" stroke-width="2" stroke-linecap="round" stroke-linejoin="round"/>
</svg>
