<svg width="40" height="40" viewBox="0 0 40 40" fill="none" xmlns="http://www.w3.org/2000/svg">
<path fill-rule="evenodd" clip-rule="evenodd" d="M19.255 6.84262C19.7242 6.60801 20.2765 6.60801 20.7457 6.84262L37.3801 15.1598C37.5919 15.2602 37.7792 15.404 37.9304 15.5797C38.1817 15.8715 38.3337 16.2513 38.3337 16.6667V26.6667C38.3337 27.5871 37.5875 28.3333 36.667 28.3333C35.7465 28.3333 35.0003 27.5871 35.0003 26.6667V19.3634L20.7457 26.4907C20.2765 26.7253 19.7242 26.7253 19.255 26.4907L2.5883 18.1574C2.02366 17.8751 1.66699 17.298 1.66699 16.6667C1.66699 16.0354 2.02366 15.4583 2.5883 15.176L19.255 6.84262ZM32.9402 16.6667L20.0003 10.1967L7.06044 16.6667L20.0003 23.1366L32.9402 16.6667Z" fill="black"/>
<path fill-rule="evenodd" clip-rule="evenodd" d="M9.99967 18.3333C10.9201 18.3333 11.6663 19.0795 11.6663 20V27.6082C13.7814 29.4346 16.8332 30.4167 19.9997 30.4167C23.1661 30.4167 26.218 29.4346 28.333 27.6082V20C28.333 19.0795 29.0792 18.3333 29.9997 18.3333C30.9201 18.3333 31.6663 19.0795 31.6663 20V28.3333C31.6663 28.7754 31.4907 29.1993 31.1782 29.5118C28.2949 32.3951 24.0805 33.75 19.9997 33.75C15.9189 33.75 11.7045 32.3951 8.82116 29.5118C8.5086 29.1993 8.33301 28.7754 8.33301 28.3333V20C8.33301 19.0795 9.0792 18.3333 9.99967 18.3333Z" fill="black"/>
</svg>
