<svg width="40" height="40" viewBox="0 0 40 40" fill="none" xmlns="http://www.w3.org/2000/svg">
<path d="M33.333 9H6.66634C4.82539 9 3.33301 10.4924 3.33301 12.3333V29C3.33301 30.841 4.82539 32.3333 6.66634 32.3333H33.333C35.174 32.3333 36.6663 30.841 36.6663 29V12.3333C36.6663 10.4924 35.174 9 33.333 9Z" stroke="black" stroke-width="2" stroke-linecap="round" stroke-linejoin="round"/>
<path d="M26.6663 36V9.33333C26.6663 8.44928 26.3151 7.60143 25.69 6.97631C25.0649 6.35119 24.2171 6 23.333 6H16.6663C15.7823 6 14.9344 6.35119 14.3093 6.97631C13.6842 7.60143 13.333 8.44928 13.333 9.33333V36" stroke="black" stroke-width="2" stroke-linecap="round" stroke-linejoin="round"/>
</svg>
