<svg width="24" height="23" viewBox="0 0 24 23" fill="none" xmlns="http://www.w3.org/2000/svg">
<g clip-path="url(#clip0_0_65)">
<path d="M20.2381 10.625C20.2381 17.3333 11.5646 23.0833 11.5646 23.0833C11.5646 23.0833 2.89111 17.3333 2.89111 10.625C2.89111 8.33751 3.80492 6.14371 5.43151 4.5262C7.0581 2.9087 9.26424 2 11.5646 2C13.8649 2 16.0711 2.9087 17.6977 4.5262C19.3242 6.14371 20.2381 8.33751 20.2381 10.625Z" stroke="#585252" stroke-width="2" stroke-linecap="round" stroke-linejoin="round"/>
<path d="M14.1568 8.30996C13.4495 6.88638 11.7157 6.30244 10.2841 7.0057C8.85253 7.70897 8.26531 9.43312 8.97253 10.8567C9.67974 12.2803 11.4136 12.8642 12.8452 12.161C14.2767 11.4577 14.864 9.73355 14.1568 8.30996Z" stroke="#585252" stroke-width="2" stroke-linecap="round" stroke-linejoin="round"/>
</g>
<defs>
<clipPath id="clip0_0_65">
<rect width="23.1293" height="23" fill="white"/>
</clipPath>
</defs>
</svg>
